<?xml version="1.0" encoding="UTF-8" standalone="no"?>
<!-- Created with Inkscape (http://www.inkscape.org/) -->

<svg
   xmlns:dc="http://purl.org/dc/elements/1.1/"
   xmlns:cc="http://creativecommons.org/ns#"
   xmlns:rdf="http://www.w3.org/1999/02/22-rdf-syntax-ns#"
   xmlns:svg="http://www.w3.org/2000/svg"
   xmlns="http://www.w3.org/2000/svg"
   xmlns:xlink="http://www.w3.org/1999/xlink"
   xmlns:sodipodi="http://sodipodi.sourceforge.net/DTD/sodipodi-0.dtd"
   xmlns:inkscape="http://www.inkscape.org/namespaces/inkscape"
   width="339.25412mm"
   height="339.25412mm"
   viewBox="0 0 1202.0815 1202.0815"
   id="svg2"
   version="1.1"
   inkscape:version="0.91 r13725"
   sodipodi:docname="contact.svg">
  <defs
     id="defs4">
    <linearGradient
       inkscape:collect="always"
       id="linearGradient4743">
      <stop
         style="stop-color:#55ffdd;stop-opacity:1"
         offset="0"
         id="stop4745" />
      <stop
         style="stop-color:#7137c8;stop-opacity:1"
         offset="1"
         id="stop4747" />
    </linearGradient>
    <linearGradient
       inkscape:collect="always"
       xlink:href="#linearGradient4743"
       id="linearGradient4749"
       x1="-378.90784"
       y1="-527.48578"
       x2="13.031336"
       y2="607.92572"
       gradientUnits="userSpaceOnUse" />
  </defs>
  <sodipodi:namedview
     id="base"
     pagecolor="#ffffff"
     bordercolor="#666666"
     borderopacity="1.0"
     inkscape:pageopacity="0.0"
     inkscape:pageshadow="2"
     inkscape:zoom="0.35"
     inkscape:cx="422.10424"
     inkscape:cy="553.15676"
     inkscape:document-units="px"
     inkscape:current-layer="layer12"
     showgrid="false"
     inkscape:window-width="1366"
     inkscape:window-height="708"
     inkscape:window-x="0"
     inkscape:window-y="28"
     inkscape:window-maximized="1"
     fit-margin-top="0"
     fit-margin-left="0"
     fit-margin-right="0"
     fit-margin-bottom="0">
    <inkscape:grid
       type="xygrid"
       id="grid4729"
       originx="22.493667"
       originy="-121.22892" />
  </sodipodi:namedview>
  <metadata
     id="metadata7">
    <rdf:RDF>
      <cc:Work
         rdf:about="">
        <dc:format>image/svg+xml</dc:format>
        <dc:type
           rdf:resource="http://purl.org/dc/dcmitype/StillImage" />
        <dc:title></dc:title>
      </cc:Work>
    </rdf:RDF>
  </metadata>
  <g
     inkscape:groupmode="layer"
     id="layer12"
     inkscape:label="Layer 0"
     transform="translate(275.9696,266.69092)">
    <circle
       style="opacity:1;fill:#e5d5ff;fill-opacity:1;stroke:none;stroke-width:5;stroke-miterlimit:4;stroke-dasharray:none;stroke-dashoffset:0;stroke-opacity:1"
       id="path5520"
       cx="325.07117"
       cy="334.34985"
       r="601.04077" />
  </g>
  <g
     inkscape:label="Layer 1"
     inkscape:groupmode="layer"
     id="layer1"
     transform="translate(22.49367,270.94827)">
    <g
       id="g4721"
       transform="translate(741.42857,522.85714)">
      <rect
         ry="51.333031"
         y="-446.99329"
         x="-318.09915"
         height="552.9967"
         width="284.76971"
         id="rect5138"
         style="opacity:0.99299999;fill:#483e37;fill-opacity:1;stroke:#a8d5ae;stroke-width:2.56410885;stroke-miterlimit:4;stroke-dasharray:none;stroke-dashoffset:0;stroke-opacity:1" />
      <path
         id="path5140"
         d="m -75.947057,-437.92878 0,27.91974 -199.349283,0 0,-26.70328 c -6.48757,1.80399 -12.43905,4.79326 -17.65409,8.66712 0.2902,0.68599 0.55962,1.38235 0.78755,2.09771 0.25039,0.78585 0.46209,1.58895 0.63327,2.40628 0.17119,0.81733 0.30242,1.64882 0.39015,2.49351 0.0877,0.84469 0.13246,1.70234 0.13246,2.57025 l 0,497.975375 c 0,0.86791 -0.0448,1.72557 -0.13246,2.57027 -0.0877,0.84467 -0.21896,1.67619 -0.39015,2.49352 -0.17118,0.81733 -0.38288,1.62043 -0.63327,2.40625 -0.25039,0.78586 -0.53976,1.55509 -0.8651,2.3053 -0.0638,0.14719 -0.14582,0.28403 -0.21243,0.42973 9.04652,6.81925 20.38927,10.910245 32.77429,10.910245 l 175.124173,0 c 11.8396,0 22.72085,-3.747115 31.56269,-10.030585 8.86408,-9.44179 14.62584,-24.66681 14.62584,-41.96082 l 0,-435.353255 c 0,-17.30048 -5.75609,-32.54854 -14.62584,-41.98906 -6.44365,-4.57567 -13.96737,-7.807 -22.1678,-9.2083 z M -293.24041,89.702995 c 0.0648,-0.1457 0.14474,-0.28254 0.20678,-0.42973 0.31626,-0.75021 0.59746,-1.51944 0.84086,-2.3053 0.2434,-0.78582 0.4491,-1.58892 0.6155,-2.40625 0.16641,-0.81733 0.29357,-1.64885 0.37884,-2.49352 0.0853,-0.8447 0.12924,-1.70236 0.12924,-2.57027 l 0,-497.975375 c 0,-0.86791 -0.044,-1.72556 -0.12924,-2.57025 -0.0853,-0.84469 -0.21243,-1.67618 -0.37884,-2.49351 -0.1664,-0.81733 -0.3721,-1.62043 -0.6155,-2.40628 -0.22157,-0.71536 -0.48364,-1.41172 -0.76574,-2.09771 -12.41126,9.48413 -20.41416,24.41777 -20.41416,41.31378 l 0,435.353255 c 0,16.76382 7.8873,31.58594 20.13226,41.08116 z"
         style="opacity:0.99299999;fill:url(#linearGradient4749);fill-opacity:1;stroke:none;stroke-width:6.19999981;stroke-miterlimit:4;stroke-dasharray:none;stroke-dashoffset:0;stroke-opacity:1"
         inkscape:connector-curvature="0" />
      <path
         id="path5142"
         d="m -201.11941,-432.81413 -15.36091,0 0,8.27131 15.36091,0 0,-8.27131 z"
         style="opacity:0.99299999;fill:#b3b3b3;fill-opacity:1;stroke:none;stroke-width:6.19999981;stroke-miterlimit:4;stroke-dasharray:none;stroke-dashoffset:0;stroke-opacity:1"
         inkscape:connector-curvature="0" />
      <path
         id="path5144"
         d="m -201.11941,-432.81413 0,8.27131 24.22349,0 0,-8.27131 -24.22349,0 z"
         style="opacity:0.99299999;fill:#808080;fill-opacity:1;stroke:none;stroke-width:6.19999981;stroke-miterlimit:4;stroke-dasharray:none;stroke-dashoffset:0;stroke-opacity:1"
         inkscape:connector-curvature="0" />
      <path
         id="path5148"
         d="m -154.0213,-432.81413 0,8.27131 17.13389,0 0,-8.27131 -17.13389,0 z"
         style="opacity:0.99299999;fill:#808080;fill-opacity:1;stroke:none;stroke-width:6.19999981;stroke-miterlimit:4;stroke-dasharray:none;stroke-dashoffset:0;stroke-opacity:1"
         inkscape:connector-curvature="0" />
    </g>
    <path
       inkscape:connector-curvature="0"
       style="opacity:0.99299999;fill:#808080;fill-opacity:1;stroke:none;stroke-width:6.19999981;stroke-miterlimit:4;stroke-dasharray:none;stroke-dashoffset:0;stroke-opacity:1"
       d="m 564.32403,89.994313 0,8.27132 23.63223,0 0,-8.27132 -23.63223,0 z"
       id="path4686" />
  </g>
  <g
     inkscape:groupmode="layer"
     id="layer2"
     inkscape:label="Layer 2"
     transform="translate(22.49367,270.94827)">
    <rect
       y="92.997307"
       x="556.26135"
       height="2.363234"
       width="25.995573"
       id="rect5150"
       style="opacity:0.99299999;fill:#f2f2f2;fill-opacity:1;stroke:none;stroke-width:6.19999981;stroke-miterlimit:4;stroke-dasharray:none;stroke-dashoffset:0;stroke-opacity:1" />
  </g>
  <g
     inkscape:groupmode="layer"
     id="layer3"
     inkscape:label="Layer 3"
     transform="translate(22.49367,270.94827)" />
  <g
     inkscape:groupmode="layer"
     id="layer4"
     inkscape:label="Layer 4"
     transform="translate(22.49367,270.94827)" />
</svg>
