<?xml version="1.0" encoding="UTF-8" standalone="no"?>
<!-- Created with Inkscape (http://www.inkscape.org/) -->

<svg
   xmlns:dc="http://purl.org/dc/elements/1.1/"
   xmlns:cc="http://creativecommons.org/ns#"
   xmlns:rdf="http://www.w3.org/1999/02/22-rdf-syntax-ns#"
   xmlns:svg="http://www.w3.org/2000/svg"
   xmlns="http://www.w3.org/2000/svg"
   xmlns:sodipodi="http://sodipodi.sourceforge.net/DTD/sodipodi-0.dtd"
   xmlns:inkscape="http://www.inkscape.org/namespaces/inkscape"
   width="157.26152mm"
   height="162.87292mm"
   viewBox="0 0 157.26152 162.87292"
   version="1.1"
   id="svg6894"
   inkscape:version="0.92.4 (unknown)"
   sodipodi:docname="AliCreative-less-fill.svg">
  <defs
     id="defs6888" />
  <sodipodi:namedview
     id="base"
     pagecolor="#ffffff"
     bordercolor="#666666"
     borderopacity="1.0"
     inkscape:pageopacity="0.0"
     inkscape:pageshadow="2"
     inkscape:zoom="0.35"
     inkscape:cx="131.02975"
     inkscape:cy="752.43159"
     inkscape:document-units="mm"
     inkscape:current-layer="layer4"
     showgrid="false"
     inkscape:window-width="1309"
     inkscape:window-height="744"
     inkscape:window-x="57"
     inkscape:window-y="24"
     inkscape:window-maximized="1"
     fit-margin-top="0"
     fit-margin-left="0"
     fit-margin-right="0"
     fit-margin-bottom="0" />
  <metadata
     id="metadata6891">
    <rdf:RDF>
      <cc:Work
         rdf:about="">
        <dc:format>image/svg+xml</dc:format>
        <dc:type
           rdf:resource="http://purl.org/dc/dcmitype/StillImage" />
        <dc:title></dc:title>
      </cc:Work>
    </rdf:RDF>
  </metadata>
  <g
     inkscape:label="Layer 1"
     inkscape:groupmode="layer"
     id="layer1"
     transform="translate(-23.814311,-124.56508)" />
  <g
     inkscape:groupmode="layer"
     id="layer4"
     inkscape:label="Layer 2"
     transform="translate(-23.814311,-124.56508)">
    <g
       id="g2115"
       transform="translate(14.363095,95.25)">
      <g
         id="g2102">
        <path
           sodipodi:type="star"
           style="opacity:1;fill:none;fill-opacity:1;stroke:#5716e6;stroke-width:0.26458332;stroke-opacity:1"
           id="path7441"
           sodipodi:sides="3"
           sodipodi:cx="101.29762"
           sodipodi:cy="120.8631"
           sodipodi:r1="68.592003"
           sodipodi:r2="22.795889"
           sodipodi:arg1="0.55743109"
           sodipodi:arg2="1.5927983"
           inkscape:flatsided="false"
           inkscape:rounded="0.03"
           inkscape:randomized="3.46945e-17"
           d="m 159.50595,157.14881 c -0.93781,1.54486 -56.90365,-13.4342 -58.70984,-13.49534 -1.822072,-0.0617 -59.150389,11.07519 -60.027003,9.47667 -0.868975,-1.5846 40.08619,-42.56291 41.042232,-44.09655 0.964446,-1.54712 19.983791,-56.763336 21.806471,-56.723242 1.80679,0.03974 16.81746,55.997112 17.66761,57.591892 0.85762,1.60879 39.16659,45.68814 38.22053,47.24657 z"
           inkscape:transform-center-x="0.88087476"
           inkscape:transform-center-y="-13.186571"
           transform="matrix(0.76181256,0,0,0.84426962,14.746255,14.241722)" />
        <path
           style="opacity:1;fill:#a60426;fill-opacity:0;stroke:#5716e6;stroke-width:0.26458332;stroke-opacity:1"
           id="path7443"
           sodipodi:type="arc"
           sodipodi:cx="91.848213"
           sodipodi:cy="109.14584"
           sodipodi:rx="65.389877"
           sodipodi:ry="65.389877"
           sodipodi:start="0.58639647"
           sodipodi:end="5.8421299"
           d="M 146.31407,145.33019 A 65.389877,65.389877 0 0 1 70.68794,171.01731 65.389877,65.389877 0 0 1 26.630922,104.39811 65.389877,65.389877 0 0 1 79.871881,44.86207 65.389877,65.389877 0 0 1 150.98039,81.23129"
           sodipodi:open="true" />
        <path
           sodipodi:open="true"
           d="M 160.68208,155.71965 A 82.416,81.264328 0 0 1 65.36453,187.64274 82.416,81.264328 0 0 1 9.8360084,104.85064 82.416,81.264328 0 0 1 76.939773,30.861269 82.416,81.264328 0 0 1 166.56341,76.059706"
           sodipodi:end="5.8421299"
           sodipodi:start="0.58639647"
           sodipodi:ry="81.264328"
           sodipodi:rx="82.416"
           sodipodi:cy="110.75097"
           sodipodi:cx="92.034485"
           sodipodi:type="arc"
           id="path7445"
           style="opacity:1;fill:#a60426;fill-opacity:0;stroke:#5716e6;stroke-width:0.33113694;stroke-opacity:1" />
        <path
           sodipodi:open="true"
           d="M 155.39277,150.48842 A 75.658821,72.980186 0 0 1 67.890184,179.15725 75.658821,72.980186 0 0 1 16.914373,104.80504 75.658821,72.980186 0 0 1 78.516388,38.358193 75.658821,72.980186 0 0 1 160.7919,78.94907"
           sodipodi:end="5.8421299"
           sodipodi:start="0.58639647"
           sodipodi:ry="72.980186"
           sodipodi:rx="75.658821"
           sodipodi:cy="110.10388"
           sodipodi:cx="92.373505"
           sodipodi:type="arc"
           id="path7447"
           style="opacity:1;fill:#a6042f;fill-opacity:0;stroke:#5716e6;stroke-width:0.30066583;stroke-opacity:1" />
      </g>
      <path
         sodipodi:type="star"
         style="opacity:1;fill:#ed26cf;fill-opacity:1;stroke:#5716e6;stroke-width:0.26458332;stroke-opacity:1"
         id="path7497"
         sodipodi:sides="3"
         sodipodi:cx="101.29762"
         sodipodi:cy="120.8631"
         sodipodi:r1="68.592003"
         sodipodi:r2="22.795889"
         sodipodi:arg1="0.55743109"
         sodipodi:arg2="1.5927983"
         inkscape:flatsided="false"
         inkscape:rounded="0.03"
         inkscape:randomized="3.46945e-17"
         d="m 159.50595,157.14881 c -0.93781,1.54486 -56.90365,-13.4342 -58.70984,-13.49534 -1.822072,-0.0617 -59.150389,11.07519 -60.027003,9.47667 -0.868975,-1.5846 40.08619,-42.56291 41.042232,-44.09655 0.964446,-1.54712 19.983791,-56.763336 21.806471,-56.723242 1.80679,0.03974 16.81746,55.997112 17.66761,57.591892 0.85762,1.60879 39.16659,45.68814 38.22053,47.24657 z"
         inkscape:transform-center-x="0.4182657"
         inkscape:transform-center-y="-6.4536515"
         transform="matrix(0.36173132,0,0,0.41319461,55.188165,64.703804)" />
    </g>
  </g>
</svg>
