<?xml version="1.0" encoding="UTF-8" standalone="no"?>
<!-- Created with Inkscape (http://www.inkscape.org/) -->

<svg
   xmlns:dc="http://purl.org/dc/elements/1.1/"
   xmlns:cc="http://creativecommons.org/ns#"
   xmlns:rdf="http://www.w3.org/1999/02/22-rdf-syntax-ns#"
   xmlns:svg="http://www.w3.org/2000/svg"
   xmlns="http://www.w3.org/2000/svg"
   xmlns:xlink="http://www.w3.org/1999/xlink"
   xmlns:sodipodi="http://sodipodi.sourceforge.net/DTD/sodipodi-0.dtd"
   xmlns:inkscape="http://www.inkscape.org/namespaces/inkscape"
   width="100.03455mm"
   height="100.0351mm"
   viewBox="0 0 354.45312 354.45509"
   id="svg2"
   version="1.1"
   inkscape:version="0.91 r13725"
   sodipodi:docname="logo2.svg">
  <defs
     id="defs4">
    <linearGradient
       inkscape:collect="always"
       id="linearGradient5229">
      <stop
         style="stop-color:#ff80d8;stop-opacity:1"
         offset="0"
         id="stop5231" />
      <stop
         style="stop-color:#3414e8;stop-opacity:1"
         offset="1"
         id="stop5233" />
    </linearGradient>
    <linearGradient
       inkscape:collect="always"
       id="linearGradient5215">
      <stop
         style="stop-color:#f52dcd;stop-opacity:1"
         offset="0"
         id="stop5217" />
      <stop
         style="stop-color:#6d2aff;stop-opacity:1"
         offset="1"
         id="stop5219" />
    </linearGradient>
    <linearGradient
       inkscape:collect="always"
       xlink:href="#linearGradient5215"
       id="linearGradient5221"
       x1="511.45813"
       y1="576.81641"
       x2="138.601"
       y2="438.245"
       gradientUnits="userSpaceOnUse" />
    <linearGradient
       inkscape:collect="always"
       xlink:href="#linearGradient5229"
       id="linearGradient5235"
       x1="420.02957"
       y1="395.38785"
       x2="145.74385"
       y2="532.5307"
       gradientUnits="userSpaceOnUse" />
  </defs>
  <sodipodi:namedview
     id="base"
     pagecolor="#ffffff"
     bordercolor="#666666"
     borderopacity="1.0"
     inkscape:pageopacity="0.0"
     inkscape:pageshadow="2"
     inkscape:zoom="0.7"
     inkscape:cx="86.790671"
     inkscape:cy="171.7929"
     inkscape:document-units="px"
     inkscape:current-layer="layer1"
     showgrid="false"
     inkscape:window-width="1366"
     inkscape:window-height="708"
     inkscape:window-x="0"
     inkscape:window-y="28"
     inkscape:window-maximized="1"
     fit-margin-top="0"
     fit-margin-left="0"
     fit-margin-right="0"
     fit-margin-bottom="0">
    <inkscape:grid
       type="xygrid"
       id="grid4140"
       originx="-172.8867"
       originy="-395.54581" />
  </sodipodi:namedview>
  <metadata
     id="metadata7">
    <rdf:RDF>
      <cc:Work
         rdf:about="">
        <dc:format>image/svg+xml</dc:format>
        <dc:type
           rdf:resource="http://purl.org/dc/dcmitype/StillImage" />
        <dc:title></dc:title>
      </cc:Work>
    </rdf:RDF>
  </metadata>
  <g
     inkscape:label="Layer 1"
     inkscape:groupmode="layer"
     id="layer1"
     transform="translate(-172.88672,-302.36133)">
    <path
       style="opacity:1;fill:#ffffff;fill-opacity:1;stroke:none;stroke-width:7.19999981;stroke-miterlimit:4;stroke-dasharray:none;stroke-dashoffset:0;stroke-opacity:1"
       d="m 409.80078,312.94727 a 177.22694,177.22694 0 0 0 -59.6875,-10.58594 177.22694,177.22694 0 0 0 -177.22656,177.22851 177.22694,177.22694 0 0 0 122.6582,168.50977 L 409.80078,312.94727 Z"
       id="path4161"
       inkscape:connector-curvature="0" />
    <path
       style="opacity:1;fill:url(#linearGradient5221);fill-opacity:1;stroke:none;stroke-width:7.19999981;stroke-miterlimit:4;stroke-dasharray:none;stroke-dashoffset:0;stroke-opacity:1"
       d="M 409.80078,312.94727 295.54492,648.09961 a 177.22694,177.22694 0 0 0 54.56836,8.7168 A 177.22694,177.22694 0 0 0 527.33984,479.58984 177.22694,177.22694 0 0 0 409.80078,312.94727 Z"
       id="path4138"
       inkscape:connector-curvature="0" />
    <path
       style="fill:none;fill-rule:evenodd;stroke:#ad28ef;stroke-width:11.00000019;stroke-linecap:butt;stroke-linejoin:miter;stroke-miterlimit:4;stroke-dasharray:none;stroke-opacity:1"
       d="m 306,372.3622 c 0,0 -22.92893,-7.07107 -30,0 -21.2132,21.2132 0,90 0,90 l -10,10 10,10 c 0,0 -23.57023,76.42977 0,100 7.07107,7.07107 30,0 30,0 l 0,0"
       id="path4142"
       inkscape:connector-curvature="0"
       sodipodi:nodetypes="cscccscc" />
    <path
       inkscape:connector-curvature="0"
       id="path4144"
       d="m 403.5223,582.28349 c 0,0 22.90568,7.146 29.99984,0.0981 21.28247,-21.14371 0.29444,-89.99952 0.29444,-89.99952 l 10.03266,-9.96723 -9.96723,-10.03266 c 0,0 15.59761,-84.62879 0.32716,-99.99947 -15.27045,-15.37068 -29.99984,-0.0981 -29.99984,-0.0981 l 0,0"
       style="fill:none;fill-rule:evenodd;stroke:#ffffff;stroke-width:11.00000019;stroke-linecap:butt;stroke-linejoin:miter;stroke-miterlimit:4;stroke-dasharray:none;stroke-opacity:1"
       sodipodi:nodetypes="csccczcc" />
    <path
       style="fill:url(#linearGradient5235);fill-rule:evenodd;stroke:none;stroke-width:7.49999981;stroke-linecap:butt;stroke-linejoin:miter;stroke-miterlimit:4;stroke-dasharray:none;stroke-opacity:1;fill-opacity:1"
       d="M 367.93555,438.55469 354,372.36133 l -50,190 44.94922,-70 0.6914,1.07617 18.29493,-54.88281 z"
       id="path4166"
       inkscape:connector-curvature="0" />
    <path
       style="fill:#f2f2f2;fill-rule:evenodd;stroke:none;stroke-width:7.49999981;stroke-linecap:butt;stroke-linejoin:miter;stroke-miterlimit:4;stroke-dasharray:none;stroke-opacity:1"
       d="M 367.93555,438.55469 349.64062,493.4375 394,562.36133 367.93555,438.55469 Z"
       id="path4146"
       inkscape:connector-curvature="0" />
  </g>
</svg>
